PathFileType	4	(X/Y/Z)	Patient4_TMGait_0pt7_01_left_23.trc.trc
DataRate	CameraRate	NumFrames	NumMarkers	Units	OrigDataRate	OrigDataStartFrame	OrigNumFrames
86.419753086420	86.419753086420	4	33	mm	86.419753086420	1	       141
Frame#	Time	Sacral			L.Shoulder			Chest			R.Shoulder			Neck			R.ASIS			L.ASIS			R.Thigh.Superior			R.Thigh.Lateral			R.Thigh.Inferior			R.Patella			L.Thigh.Superior			L.Thigh.Lateral			L.Thigh.Inferior			L.Patella			L.Shank.Superior			L.Shank.Lateral			L.Shank.Inferior			R.Shank.Superior			R.Shank.Lateral			R.Shank.Inferior			R.Heel			R.Midfoot.Superior			R.Midfoot.Lateral			R.Toe			L.Heel			L.Midfoot.Lateral			L.Midfoot.Superior			L.Toe			L.Elbow			L.Wrist			R.Elbow			R.Wrist			
		X1	Y1	Z1	X2	Y2	Z2	X3	Y3	Z3	X4	Y4	Z4	X5	Y5	Z5	X6	Y6	Z6	X7	Y7	Z7	X8	Y8	Z8	X9	Y9	Z9	X10	Y10	Z10	X11	Y11	Z11	X12	Y12	Z12	X13	Y13	Z13	X14	Y14	Z14	X15	Y15	Z15	X16	Y16	Z16	X17	Y17	Z17	X18	Y18	Z18	X19	Y19	Z19	X20	Y20	Z20	X21	Y21	Z21	X22	Y22	Z22	X23	Y23	Z23	X24	Y24	Z24	X25	Y25	Z25	X26	Y26	Z26	X27	Y27	Z27	X28	Y28	Z28	X29	Y29	Z29	X30	Y30	Z30	X31	Y31	Z31	X32	Y32	Z32	X33	Y33	Z33	

1	26.460000000000	784.344179775454	1011.360277183939	514.402317373808	962.101012478203	1438.323612938457	322.121983747776	1079.932107457545	1359.694192110192	469.608244602738	1020.731886838143	1435.144804438847	652.707425403182	982.999746941480	1494.500428386984	477.496337330880	1017.299594171575	944.840613633064	614.792581985235	983.573203620039	963.275475489296	342.379694346772	1048.589256685086	742.729816495008	589.449737224715	963.906614703157	635.240377591736	646.763184535375	1040.314368189187	582.674762289393	567.468727493956	1037.693157285410	495.748256253210	572.813855819237	1077.528479475609	799.071286834893	363.409398027485	1041.614891500177	671.054316553595	280.613975652531	1155.977071542093	618.308315912092	329.827358292439	1178.217238857061	529.798224061569	318.743570790757	1119.145405901925	454.564028876838	317.653793318842	979.783442667505	396.180922789603	280.022584264670	986.623734827161	266.337875687225	335.598202017684	1011.079258406630	407.077081300566	576.984303119998	939.109998332304	300.871054465581	632.907732735196	989.281131975527	208.745113253664	568.952066949823	861.390717881006	42.004021816498	525.201546986060	1030.678571115659	97.358489611067	570.572863655074	941.880782125564	36.283450371510	604.003556728047	1149.968989739364	46.653644635852	603.608964274817	808.228614039537	176.600844986190	387.053065397066	865.427087845316	140.796838107330	301.498000403038	970.081190575845	163.226213013743	315.826842432086	1060.289096331689	63.369043511769	278.600476942494	881.429731780799	1089.081633687692	228.806074922683	927.392777892493	832.509932680895	221.862913305525	1046.440574067924	1089.959987967211	785.395792858856	1207.070964644449	882.327039453769	773.427226809502	
2	26.471571428571	783.628896188840	1011.764667121564	516.144904865634	960.982007953184	1438.286607797249	323.252084209353	1079.687091134699	1359.581884926378	469.949165635189	1021.899153840857	1435.105985296782	653.480980105563	982.988220946769	1494.469198522545	478.468316857576	1016.740692384398	944.796783609790	615.636374532319	982.284120559895	963.384404752545	343.246342451212	1045.303659484703	742.113631062462	589.452620574145	959.714182355015	635.319478719932	647.657250777539	1034.749228755343	582.033769475187	568.025593184475	1031.059373677064	495.375530928583	573.451653536670	1076.692379508303	800.805579077497	364.597694958014	1042.612973036234	672.732513670131	280.986860144043	1156.840171692679	620.844078341323	330.744289891638	1180.410909415616	533.981148669573	319.280124461566	1125.414577246003	457.605323819524	317.448514571166	990.922199057143	390.873723996881	279.301216633304	1006.762679340022	261.838880424600	333.381343143048	1004.270525282589	406.964510859717	577.582577730890	931.762393103465	300.843932688780	633.322813331301	981.357913967150	208.622959492153	569.178936218923	852.993028477810	42.073426997604	525.350264383747	1022.226909631968	97.281415539684	570.617002239555	933.320194938154	36.293339472771	604.020756612437	1141.417720127789	46.393215267790	603.654503240826	836.298166306904	160.623669640315	384.321164049679	894.876722902218	129.480709498969	298.330358172073	997.274202057014	158.426988112044	312.613776679365	1093.056551939655	65.488447395213	274.395909513038	873.304825253597	1090.950620405233	230.695979053525	904.755324628019	834.056006409252	222.979171269181	1057.686096918724	1091.906359810308	786.397137028852	1230.172508408752	897.222734181555	768.398715579375	
3	26.483142857143	782.932466072926	1012.143269018843	517.824061922236	959.900717623869	1438.244091036866	324.358797166806	1079.451746750090	1359.447772425680	470.279904042399	1023.034310126602	1435.027015973819	654.236724184241	982.985600532876	1494.416669588331	479.429965862331	1016.194363144761	944.735502865694	616.440807500518	981.040311376187	963.454294856351	344.062049684244	1042.100638886285	741.486449835728	589.473974354430	955.586562934762	635.382581606574	648.523411895564	1029.272450992493	581.385984564640	568.570945159784	1024.525174901272	494.997273242289	574.066712876132	1075.800950744712	802.341290400040	365.747470289154	1043.415396538373	674.198085734137	281.407579499840	1157.450225892870	623.073761227554	331.750365721896	1182.319343212789	537.897541999240	319.929189286529	1131.393643246582	460.498204160795	317.322659591110	1001.946956727491	385.535540929753	278.531631091384	1026.706530375785	257.450036118881	331.182928756060	997.547364944854	406.837799830623	578.155852024819	924.520519632881	300.809066129941	633.726198270379	973.544072879031	208.492257192306	569.388996246596	844.690020833663	42.139046336645	525.492447102592	1013.877731681348	97.203723866346	570.658663439930	924.866675398596	36.301617252355	604.033770742082	1132.973443584655	46.137234379002	603.699441538048	864.300952951940	144.922007375192	381.454952804845	924.267764908310	118.459030399265	295.097154205328	1024.305404352012	153.847833456464	309.439321538406	1125.562479287700	67.874719619769	270.351999530749	865.216583137514	1092.870068337729	232.509999607527	882.610974223349	835.749939960913	224.074451487447	1068.732534564289	1093.834695778885	787.335660300304	1252.787945755576	912.137484518484	763.321682854321	
4	26.494714285714	782.280102610794	1012.469236339663	519.381313728783	958.895540131341	1438.190026427239	325.418411279208	1079.238999244336	1359.268947428722	470.586917017640	1024.115290494568	1434.868719430178	654.953962552995	983.003802526206	1494.319739242995	480.369211217484	1015.678394327671	944.636889417095	617.162798766810	979.879789143814	963.443997210999	344.776503444392	1039.037660137191	740.828365017628	589.527108706052	951.552949940186	635.415394269633	649.332725799780	1023.926084703699	580.719018017160	569.089982685195	1018.135860129270	494.602640796696	574.633175883208	1074.779284271646	803.470414000310	366.816989353643	1043.800588983340	675.238344563748	281.904867273958	1157.545714981057	624.702490586476	332.906485459690	1183.649761288142	541.308026498221	320.787114477745	1136.800678777368	463.118294680327	317.342950877450	1012.767015721256	380.144869147585	277.699216053694	1046.318193104041	253.325155637918	329.041650395974	990.933863213480	406.680363487029	578.676283214277	917.419510356145	300.765008479021	634.108147158445	965.867380232436	208.346483420030	569.569404358369	836.489509363246	42.199167234824	525.624910030554	1005.646582822971	97.125434737636	570.697319558352	916.537353683760	36.307129211530	604.041952001107	1124.654503640009	45.886806078474	603.743270726740	892.271499591108	129.811177117206	378.397152453729	953.638915133040	108.051717734420	291.804808954404	1051.094281511532	149.753137636830	306.374743967821	1157.629923904215	70.859503719167	266.667373963002	857.164748738833	1094.921055201309	234.179914488336	861.338609093855	837.757369942035	225.136420405891	1079.456049903135	1095.745386971500	788.114717452939	1274.498853874530	927.260476836612	758.089084574842	
